<?xml version="1.0" standalone="no"?>
<!DOCTYPE svg PUBLIC "-//W3C//DTD SVG 20010904//EN"
 "http://www.w3.org/TR/2001/REC-SVG-20010904/DTD/svg10.dtd">
<svg version="1.0" xmlns="http://www.w3.org/2000/svg"
 width="152.000000pt" height="152.000000pt" viewBox="0 0 152.000000 152.000000"
 preserveAspectRatio="xMidYMid meet">
<metadata>
Created by potrace 1.11, written by Peter Selinger 2001-2013
</metadata>
<g transform="translate(0.000000,152.000000) scale(0.100000,-0.100000)"
fill="#000000" stroke="none">
<path d="M25 1480 c10 -11 20 -20 23 -20 3 0 -3 9 -13 20 -10 11 -20 20 -23
20 -3 0 3 -9 13 -20z"/>
<path d="M61 1453 c2 -6 54 -64 115 -130 62 -65 128 -136 149 -158 20 -22 65
-69 99 -105 34 -36 100 -106 146 -155 47 -50 146 -155 222 -235 75 -80 149
-158 164 -175 15 -16 88 -94 162 -172 140 -148 162 -162 195 -125 31 35 21 65
-40 122 -32 29 -92 85 -133 124 -41 39 -144 136 -229 216 -85 80 -169 159
-186 175 -40 38 -276 259 -324 304 -138 129 -298 280 -319 301 -13 14 -23 20
-21 13z"/>
<path d="M435 1341 c22 -25 45 -50 50 -56 12 -14 187 -203 235 -255 30 -32
123 -133 225 -245 16 -16 80 -86 144 -155 97 -104 189 -204 236 -255 28 -30
80 -21 94 17 10 26 -1 54 -33 81 -12 10 -44 40 -71 65 -47 44 -287 265 -311
287 -6 6 -61 57 -122 113 -61 57 -120 111 -130 120 -18 16 -192 176 -257 237
-18 17 -47 43 -66 60 -30 27 -30 25 6 -14z"/>
<path d="M760 1240 c0 -5 10 -17 23 -27 12 -10 65 -65 117 -122 52 -58 106
-117 120 -131 43 -45 224 -242 243 -264 111 -128 167 -163 182 -116 8 24 -5
42 -75 105 -30 28 -82 75 -115 106 -101 94 -197 183 -270 251 -198 184 -225
208 -225 198z"/>
<path d="M155 1080 c17 -19 53 -59 82 -90 28 -30 60 -64 70 -76 10 -12 65 -72
123 -134 58 -62 116 -124 129 -139 13 -14 72 -77 130 -140 58 -63 113 -122
121 -131 30 -35 206 -224 233 -252 33 -32 67 -36 90 -10 23 26 21 55 -6 83
-18 19 -175 165 -242 224 -19 17 -136 126 -221 205 -44 41 -129 120 -189 175
-90 82 -220 202 -245 225 -3 3 -28 25 -55 50 -40 36 -44 38 -20 10z"/>
<path d="M1090 1095 c8 -11 20 -24 26 -30 6 -5 42 -44 79 -85 159 -175 177
-191 192 -178 13 10 6 20 -43 67 -33 30 -90 83 -129 119 -114 106 -140 128
-125 107z"/>
<path d="M295 720 c28 -29 55 -59 60 -65 6 -7 39 -44 75 -82 66 -70 80 -85
275 -298 185 -200 185 -201 213 -173 29 29 17 43 -223 262 -54 50 -238 220
-305 282 -36 34 -83 76 -105 94 -36 31 -36 29 10 -20z"/>
<path d="M410 446 c14 -16 42 -48 63 -70 20 -23 70 -77 110 -122 85 -96 106
-112 118 -92 7 9 -9 30 -53 72 -73 69 -178 165 -228 210 l-35 31 25 -29z"/>
</g>
</svg>
